<?xml version="1.0" encoding="iso-8859-1"?>
<!-- Generator: Adobe Illustrator 19.0.0, SVG Export Plug-In . SVG Version: 6.00 Build 0)  -->
<svg version="1.1" id="Capa_1" xmlns="http://www.w3.org/2000/svg" xmlns:xlink="http://www.w3.org/1999/xlink" x="0px" y="0px"
	 viewBox="0 0 391.762 391.762" style="enable-background:new 0 0 391.762 391.762;" xml:space="preserve">
<g>
	<path d="M134.668,348.911c0,6.764,5.478,12.242,12.242,12.242h97.939c6.764,0,12.242-5.478,12.242-12.242v-12.242H134.668V348.911z
		 M195.88,278.517c-35.442,0-64.273-28.831-64.273-64.273s28.831-64.273,64.273-64.273s64.273,28.831,64.273,64.273
		S231.322,278.517,195.88,278.517L195.88,278.517z M195.88,143.85c-38.815,0-70.394,31.579-70.394,70.394
		s31.579,70.394,70.394,70.394s70.394-31.579,70.394-70.394S234.695,143.85,195.88,143.85L195.88,143.85z M195.88,159.153
		c-30.429,0-55.091,24.662-55.091,55.091s24.662,55.091,55.091,55.091s55.091-24.662,55.091-55.091S226.309,159.153,195.88,159.153
		L195.88,159.153z M379.003,346.462c-15.028-34.383-27.643-53.102-37.774-68.141c-11.006-16.337-18.272-27.129-21.32-48.804
		c-2.442-17.335,3.985-33.563,10.779-50.745c9.17-23.144,18.633-47.078,6.972-75.383c-20.047-48.627-69.941-58.274-109.013-60.135
		l-2.161-43.252h-61.212l-2.161,43.246c-39.066,1.855-88.96,11.508-109.013,60.141c-11.661,28.304-2.198,52.238,6.972,75.383
		c6.795,17.182,13.222,33.41,10.779,50.745c-3.048,21.675-10.314,32.467-21.32,48.804c-10.131,15.04-22.746,33.759-37.774,68.141
		C2.315,370.353,0.155,384.15,0.069,384.732c-0.502,3.33,1.794,6.439,5.13,6.948c3.391,0.514,6.458-1.787,6.972-5.117
		c0.024-0.122,2.093-12.983,11.802-35.203c14.587-33.361,26.854-51.565,36.709-66.201c11.526-17.109,19.851-29.467,23.297-53.934
		c2.883-20.543-4.444-39.053-11.526-56.958c-8.643-21.853-16.815-42.487-7.033-66.219c17.299-41.949,60.643-50.72,97.076-52.508
		l-3.342,66.886c0,6.733,5.509,12.242,12.242,12.242h48.97c6.733,0,12.242-5.509,12.242-12.242l-3.342-66.893
		c36.476,1.787,79.772,10.547,97.07,52.514c9.788,23.732,1.616,44.367-7.027,66.219c-7.082,17.905-14.409,36.415-11.526,56.958
		c3.446,24.466,11.771,36.825,23.297,53.934c9.855,14.636,22.122,32.84,36.709,66.201c9.708,22.22,11.777,35.081,11.802,35.203
		c0.459,3.03,3.067,5.197,6.042,5.197c0.3,0,0.612-0.025,0.912-0.067c3.348-0.508,5.65-3.624,5.148-6.96
		C391.606,384.15,389.445,370.353,379.003,346.462L379.003,346.462z"/>
</g>
<g>
</g>
<g>
</g>
<g>
</g>
<g>
</g>
<g>
</g>
<g>
</g>
<g>
</g>
<g>
</g>
<g>
</g>
<g>
</g>
<g>
</g>
<g>
</g>
<g>
</g>
<g>
</g>
<g>
</g>
</svg>
