{
  "accessors": [
    {
      "bufferView": 2,
      "componentType": 5126,
      "count": 504,
      "max": [
        368.81658935546875,
        22.487199783325195,
        17.365900039672852
      ],
      "min": [
        -276.602294921875,
        -22.151800155639648,
        8.6028003692626953
      ],
      "type": "VEC3"
    },
    {
      "bufferView": 2,
      "byteOffset": 6048,
      "componentType": 5126,
      "count": 504,
      "max": [
        0.99871742725372314,
        0.99998986721038818,
        0.98942077159881592
      ],
      "min": [
        -0.99868595600128174,
        -0.99999141693115234,
        -0.9856451153755188
      ],
      "type": "VEC3"
    },
    {
      "bufferView": 0,
      "componentType": 5125,
      "count": 2832,
      "max": [
        503
      ],
      "min": [
        0
      ],
      "type": "SCALAR"
    },
    {
      "bufferView": 2,
      "byteOffset": 12096,
      "componentType": 5126,
      "count": 1700,
      "max": [
        382.23440551757812,
        67.596000671386719,
        23.06450080871582
      ],
      "min": [
        -385.63531494140625,
        -119.83599853515625,
        -14.428099632263184
      ],
      "type": "VEC3"
    },
    {
      "bufferView": 2,
      "byteOffset": 32496,
      "componentType": 5126,
      "count": 1700,
      "max": [
        1,
        1,
        1
      ],
      "min": [
        -1,
        -1,
        -0.92383688688278198
      ],
      "type": "VEC3"
    },
    {
      "bufferView": 3,
      "componentType": 5126,
      "count": 1700,
      "max": [
        1,
        0.99876171350479126,
        1,
        1
      ],
      "min": [
        -1,
        -1,
        -1,
        -1
      ],
      "type": "VEC4"
    },
    {
      "bufferView": 1,
      "componentType": 5126,
      "count": 1700,
      "max": [
        0.99529999494552612,
        0.98089998960494995
      ],
      "min": [
        0.022800000384449959,
        0.0094999996945261955
      ],
      "type": "VEC2"
    },
    {
      "bufferView": 0,
      "byteOffset": 11328,
      "componentType": 5125,
      "count": 4227,
      "max": [
        1699
      ],
      "min": [
        0
      ],
      "type": "SCALAR"
    },
    {
      "bufferView": 2,
      "byteOffset": 52896,
      "componentType": 5126,
      "count": 7203,
      "max": [
        384.41610717773438,
        125.64109802246094,
        27.977500915527344
      ],
      "min": [
        -385.63531494140625,
        -124.99030303955078,
        -26.950599670410156
      ],
      "type": "VEC3"
    },
    {
      "bufferView": 2,
      "byteOffset": 139332,
      "componentType": 5126,
      "count": 7203,
      "max": [
        1,
        1,
        1
      ],
      "min": [
        -1,
        -1,
        -1
      ],
      "type": "VEC3"
    },
    {
      "bufferView": 3,
      "byteOffset": 27200,
      "componentType": 5126,
      "count": 7203,
      "max": [
        1,
        1,
        1,
        1
      ],
      "min": [
        -1,
        -1,
        -1,
        -1
      ],
      "type": "VEC4"
    },
    {
      "bufferView": 1,
      "byteOffset": 13600,
      "componentType": 5126,
      "count": 7203,
      "max": [
        0.9804999828338623,
        0.98739999532699585
      ],
      "min": [
        0.014899999834597111,
        0.0041000000201165676
      ],
      "type": "VEC2"
    },
    {
      "bufferView": 0,
      "byteOffset": 28236,
      "componentType": 5125,
      "count": 21549,
      "max": [
        7202
      ],
      "min": [
        0
      ],
      "type": "SCALAR"
    },
    {
      "bufferView": 2,
      "byteOffset": 225768,
      "componentType": 5126,
      "count": 37,
      "max": [
        254.24549865722656,
        4.2153000831604004,
        12.720700263977051
      ],
      "min": [
        241.24009704589844,
        -1.7510000467300415,
        6.7298998832702637
      ],
      "type": "VEC3"
    },
    {
      "bufferView": 2,
      "byteOffset": 226212,
      "componentType": 5126,
      "count": 37,
      "max": [
        0.99990761280059814,
        0.98993754386901855,
        1
      ],
      "min": [
        0,
        -0.98995339870452881,
        -0.99950689077377319
      ],
      "type": "VEC3"
    },
    {
      "bufferView": 3,
      "byteOffset": 142448,
      "componentType": 5126,
      "count": 37,
      "max": [
        0.860870361328125,
        0.95774048566818237,
        0.96399790048599243,
        1
      ],
      "min": [
        -0.84451472759246826,
        -0.96621596813201904,
        -0.95552545785903931,
        1
      ],
      "type": "VEC4"
    },
    {
      "bufferView": 1,
      "byteOffset": 71224,
      "componentType": 5126,
      "count": 37,
      "max": [
        0.35229998826980591,
        0.95450001955032349
      ],
      "min": [
        0.3158000111579895,
        0.93290001153945923
      ],
      "type": "VEC2"
    },
    {
      "bufferView": 0,
      "byteOffset": 114432,
      "componentType": 5125,
      "count": 108,
      "max": [
        36
      ],
      "min": [
        0
      ],
      "type": "SCALAR"
    },
    {
      "bufferView": 2,
      "byteOffset": 226656,
      "componentType": 5126,
      "count": 12330,
      "max": [
        384.41610717773438,
        126.31500244140625,
        26.408100128173828
      ],
      "min": [
        -385.63531494140625,
        -125.66410064697266,
        -28.020700454711914
      ],
      "type": "VEC3"
    },
    {
      "bufferView": 2,
      "byteOffset": 374616,
      "componentType": 5126,
      "count": 12330,
      "max": [
        1,
        1,
        1
      ],
      "min": [
        -1,
        -1,
        -1
      ],
      "type": "VEC3"
    },
    {
      "bufferView": 3,
      "byteOffset": 143040,
      "componentType": 5126,
      "count": 12330,
      "max": [
        1,
        1,
        1,
        1
      ],
      "min": [
        -1,
        -1,
        -1,
        -1
      ],
      "type": "VEC4"
    },
    {
      "bufferView": 1,
      "byteOffset": 71520,
      "componentType": 5126,
      "count": 12330,
      "max": [
        0.99070000648498535,
        0.9901999831199646
      ],
      "min": [
        0.0086000002920627594,
        0.0066999997943639755
      ],
      "type": "VEC2"
    },
    {
      "bufferView": 0,
      "byteOffset": 114864,
      "componentType": 5125,
      "count": 47319,
      "max": [
        12329
      ],
      "min": [
        0
      ],
      "type": "SCALAR"
    }
  ],
  "asset": {
    "extras": {
      "author": "Sladegeorg (https://sketchfab.com/Sladegeorg)",
      "license": "SKETCHFAB Standard (https://sketchfab.com/licenses)",
      "source": "https://sketchfab.com/models/f2b583f97def4b1d954bda871f65eaf2",
      "title": "Fender Telecaster"
    },
    "generator": "Sketchfab-4.7.0",
    "version": "2.0"
  },
  "bufferViews": [
    {
      "buffer": 0,
      "byteLength": 304140,
      "byteOffset": 0,
      "name": "floatBufferViews",
      "target": 34963
    },
    {
      "buffer": 0,
      "byteLength": 170160,
      "byteOffset": 304140,
      "byteStride": 8,
      "name": "floatBufferViews",
      "target": 34962
    },
    {
      "buffer": 0,
      "byteLength": 522576,
      "byteOffset": 474300,
      "byteStride": 12,
      "name": "floatBufferViews",
      "target": 34962
    },
    {
      "buffer": 0,
      "byteLength": 340320,
      "byteOffset": 996876,
      "byteStride": 16,
      "name": "floatBufferViews",
      "target": 34962
    }
  ],
  "buffers": [
    {
      "byteLength": 1337196,
      "uri": "scene.bin"
    }
  ],
  "extensionsRequired": [
    "KHR_materials_pbrSpecularGlossiness"
  ],
  "extensionsUsed": [
    "KHR_materials_pbrSpecularGlossiness"
  ],
  "images": [
    {
      "uri": "textures/GUITAR_specularGlossiness.png"
    },
    {
      "uri": "textures/GUITAR_normal.png"
    },
    {
      "uri": "textures/GUITAR_diffuse.png"
    }
  ],
  "materials": [
    {
      "doubleSided": true,
      "emissiveFactor": [
        0,
        0,
        0
      ],
      "extensions": {
        "KHR_materials_pbrSpecularGlossiness": {
          "diffuseFactor": [
            1,
            1,
            1,
            1
          ],
          "diffuseTexture": {
            "index": 2,
            "texCoord": 0
          },
          "glossinessFactor": 1,
          "specularFactor": [
            0.72505245569999999,
            0.72505245569999999,
            0.72505245569999999
          ],
          "specularGlossinessTexture": {
            "index": 0,
            "texCoord": 0
          }
        }
      },
      "name": "GUITAR",
      "normalTexture": {
        "index": 1,
        "scale": 1,
        "texCoord": 0
      }
    },
    {
      "doubleSided": true,
      "emissiveFactor": [
        0,
        0,
        0
      ],
      "extensions": {
        "KHR_materials_pbrSpecularGlossiness": {
          "diffuseFactor": [
            1,
            1,
            1,
            1
          ],
          "glossinessFactor": 0.40000000000000002,
          "specularFactor": [
            0,
            0,
            0
          ]
        }
      },
      "name": "STRINGS"
    }
  ],
  "meshes": [
    {
      "primitives": [
        {
          "attributes": {
            "NORMAL": 1,
            "POSITION": 0
          },
          "indices": 2,
          "material": 1,
          "mode": 4
        }
      ]
    },
    {
      "primitives": [
        {
          "attributes": {
            "NORMAL": 4,
            "POSITION": 3,
            "TANGENT": 5,
            "TEXCOORD_0": 6
          },
          "indices": 7,
          "material": 0,
          "mode": 4
        }
      ]
    },
    {
      "primitives": [
        {
          "attributes": {
            "NORMAL": 9,
            "POSITION": 8,
            "TANGENT": 10,
            "TEXCOORD_0": 11
          },
          "indices": 12,
          "material": 0,
          "mode": 4
        }
      ]
    },
    {
      "primitives": [
        {
          "attributes": {
            "NORMAL": 14,
            "POSITION": 13,
            "TANGENT": 15,
            "TEXCOORD_0": 16
          },
          "indices": 17,
          "material": 0,
          "mode": 4
        }
      ]
    },
    {
      "primitives": [
        {
          "attributes": {
            "NORMAL": 19,
            "POSITION": 18,
            "TANGENT": 20,
            "TEXCOORD_0": 21
          },
          "indices": 22,
          "material": 0,
          "mode": 4
        }
      ]
    }
  ],
  "nodes": [
    {
      "children": [
        1
      ],
      "name": "RootNode (gltf orientation matrix)",
      "rotation": [
        -0.70710678118654746,
        -0,
        -0,
        0.70710678118654757
      ]
    },
    {
      "children": [
        2
      ],
      "name": "RootNode (model correction matrix)"
    },
    {
      "children": [
        3,
        4,
        5,
        6,
        7
      ],
      "name": "G_LP_READY.obj.cleaner.materialmerger.gles"
    },
    {
      "mesh": 0,
      "name": ""
    },
    {
      "mesh": 1,
      "name": ""
    },
    {
      "mesh": 2,
      "name": ""
    },
    {
      "mesh": 3,
      "name": ""
    },
    {
      "mesh": 4,
      "name": ""
    }
  ],
  "samplers": [
    {
      "magFilter": 9729,
      "minFilter": 9987,
      "wrapS": 10497,
      "wrapT": 10497
    }
  ],
  "scene": 0,
  "scenes": [
    {
      "name": "OSG_Scene",
      "nodes": [
        0
      ]
    }
  ],
  "textures": [
    {
      "sampler": 0,
      "source": 0
    },
    {
      "sampler": 0,
      "source": 1
    },
    {
      "sampler": 0,
      "source": 2
    }
  ]
}

